<?xml version="1.0" encoding="utf-8"?>
<!-- Generator: Adobe Illustrator 25.1.0, SVG Export Plug-In . SVG Version: 6.00 Build 0)  -->
<svg version="1.1" id="Layer_1" xmlns="http://www.w3.org/2000/svg" xmlns:xlink="http://www.w3.org/1999/xlink" x="0px" y="0px"
	 viewBox="0 0 1042.8 468.3" style="enable-background:new 0 0 1042.8 468.3;" xml:space="preserve">
<style type="text/css">
	.st0{fill:#FFA591;}
</style>
<g>
	<path class="st0" d="M32.7,307h-23c-2.3,0-4.1-1.9-4.1-4.1v-138c0-2.3,1.8-4.1,4.1-4.1h23c2.3,0,4.1,1.8,4.1,4.1v138
		C36.9,305.1,35,307,32.7,307"/>
	<path class="st0" d="M180.4,307h-22.9c-1.4,0-2.8-0.8-3.5-2l-54.2-89.1v87c0,2.3-1.8,4.1-4.1,4.1h-23c-2.3,0-4.1-1.9-4.1-4.1v-138
		c0-2.3,1.8-4.1,4.1-4.1h23c1.4,0,2.8,0.8,3.5,2l54.2,89v-86.9c0-2.3,1.8-4.1,4.1-4.1h22.9c2.3,0,4.1,1.8,4.1,4.1v138
		C184.6,305.1,182.7,307,180.4,307"/>
	<path class="st0" d="M328.3,307h-22.9c-1.4,0-2.8-0.8-3.5-2l-54.2-89.1v87c0,2.3-1.8,4.1-4.1,4.1h-23c-2.3,0-4.1-1.9-4.1-4.1v-138
		c0-2.3,1.8-4.1,4.1-4.1h23c1.4,0,2.8,0.8,3.5,2l54.2,89v-86.9c0-2.3,1.8-4.1,4.1-4.1h22.9c2.3,0,4.1,1.8,4.1,4.1v138
		C332.5,305.1,330.6,307,328.3,307"/>
	<path class="st0" d="M424.3,309c-17.7,0-32.3-6-43.4-18c-11-11.8-16.6-26.9-16.6-44.8v-24.8c0-17.8,5.6-32.9,16.6-44.7
		c11.1-11.9,25.7-18,43.3-18c18,0,32.8,6,44.2,18c11.3,11.9,17.1,26.9,17.1,44.8v24.8c0,17.9-5.7,33-17,44.8
		C457.1,303,442.3,309,424.3,309 M424.2,185.9c-8.9,0-15.7,3.1-20.8,9.5c-5.3,6.6-7.9,15.3-7.9,25.8v25c0,10.6,2.7,19.4,7.9,26
		c5.1,6.4,11.9,9.6,20.8,9.6c9.3,0,16.5-3.1,21.8-9.6c5.4-6.6,8.2-15.4,8.2-26v-25c0-10.6-2.7-19-8.3-25.7
		C440.6,189.1,433.5,185.9,424.2,185.9"/>
	<path class="st0" d="M566.4,307h-44.7c-2.3,0-4.1-1.9-4.1-4.1v-138c0-2.3,1.9-4.1,4.1-4.1h44.7c18.6,0,33.9,5.9,45.6,17.6
		c11.7,11.7,17.7,26.9,17.7,45.1v20.9c0,18.3-5.9,33.5-17.7,45.1C600.3,301.1,585,307,566.4,307 M548.8,280.2h16.9
		c10.3,0,18.1-3.2,23.9-9.8c5.9-6.7,8.8-15.3,8.8-26.2v-21.1c0-10.7-2.9-19.2-8.8-26c-5.8-6.6-13.6-9.8-23.9-9.8h-16.9V280.2z"/>
	<path class="st0" d="M718.8,309c-16.7,0-30.5-4.5-41.1-13.3c-10.7-9-16.2-21.9-16.2-38.3v-92.5c0-2.3,1.8-4.1,4.1-4.1h23
		c2.3,0,4.1,1.8,4.1,4.1v92.5c0,8.5,2.2,14.6,6.8,18.7c4.7,4.2,11,6.2,19.1,6.2c8.4,0,15.1-2.1,20-6.3c4.7-4.1,7-10.2,7-18.7v-92.5
		c0-2.3,1.8-4.1,4.1-4.1h23c2.3,0,4.1,1.8,4.1,4.1v92.5c0,16.5-5.5,29.4-16.5,38.4C749.9,304.5,735.8,309,718.8,309"/>
	<path class="st0" d="M906.1,307H813c-2.3,0-4.1-1.9-4.1-4.1v-138c0-2.3,1.8-4.1,4.1-4.1h92.4c2.3,0,4.1,1.8,4.1,4.1v18.5
		c0,2.3-1.8,4.1-4.1,4.1h-65.3v30.7h56.3c2.3,0,4.1,1.8,4.1,4.1v18.5c0,2.3-1.8,4.1-4.1,4.1h-56.3v35.3H906c2.3,0,4.1,1.8,4.1,4.1
		v18.5C910.2,305.1,908.3,307,906.1,307"/>
	<path class="st0" d="M1032.2,307h-86.5c-2.3,0-4.1-1.9-4.1-4.1v-138c0-2.3,1.8-4.1,4.1-4.1h23c2.3,0,4.1,1.8,4.1,4.1v115.4h59.3
		c2.3,0,4.1,1.8,4.1,4.1v18.5C1036.3,305.1,1034.5,307,1032.2,307"/>
	<path class="st0" d="M525.6,467.9c-2.8,0.7-7.8,0.3-9.9-0.1c-2.1-0.4-205.9-49.3-212.1-50.8s-6.2-7.1-6.2-9.3v-57H6.2
		c-3.4,0-6.2-2.8-6.2-6.2c0-3.4,2.8-6.2,6.2-6.2h1030.2c3.4,0,6.2,2.8,6.2,6.2c0,3.4-2.8,6.2-6.2,6.2H744v58.4
		c0,3.4-1.8,6.8-5.5,7.7C734.8,417.7,525.6,467.9,525.6,467.9"/>
	<path class="st0" d="M517.1,0.4c2.8-0.7,7.8-0.3,9.9,0.1c2.1,0.4,205.9,49.3,212.1,50.8c6.2,1.5,6.2,7.1,6.2,9.3v57h291.1
		c3.4,0,6.2,2.8,6.2,6.2s-2.8,6.2-6.2,6.2H6.2c-3.4,0-6.2-2.8-6.2-6.2s2.8-6.2,6.2-6.2h292.5V59.2c0-3.4,1.8-6.8,5.5-7.7
		C307.9,50.6,517.1,0.4,517.1,0.4"/>
</g>
</svg>
